0
SECTION
2
HEADER
9
$INSUNITS
70
4
9
$ACADVER
1
AC1014
9
$HANDSEED
5
FFFF
0
ENDSEC
0
SECTION
2
TABLES
0
TABLE
2
VPORT
5
8
100
AcDbSymbolTable
0
ENDTAB
0
TABLE
2
LTYPE
5
5
100
AcDbSymbolTable
0
LTYPE
5
14
100
AcDbSymbolTableRecord
100
AcDbLinetypeTableRecord
2
BYBLOCK
70
0
0
LTYPE
5
15
100
AcDbSymbolTableRecord
100
AcDbLinetypeTableRecord
2
BYLAYER
70
0
0
ENDTAB
0
TABLE
2
LAYER
5
2
100
AcDbSymbolTable
70
2
0
LAYER
5
50
100
AcDbSymbolTableRecord
100
AcDbLayerTableRecord
2
0
70
0
6
CONTINUOUS
0
ENDTAB
0
TABLE
2
STYLE
5
3
100
AcDbSymbolTable
70
1
0
STYLE
5
11
100
AcDbSymbolTableRecord
100
AcDbTextStyleTableRecord
2
STANDARD
70
0
0
ENDTAB
0
TABLE
2
VIEW
5
6
100
AcDbSymbolTable
70
0
0
ENDTAB
0
TABLE
2
UCS
5
7
100
AcDbSymbolTable
70
0
0
ENDTAB
0
TABLE
2
APPID
5
9
100
AcDbSymbolTable
70
2
0
APPID
5
12
100
AcDbSymbolTableRecord
100
AcDbRegAppTableRecord
2
ACAD
70
0
0
ENDTAB
0
TABLE
2
DIMSTYLE
5
A
100
AcDbSymbolTable
70
1
0
ENDTAB
0
TABLE
2
BLOCK_RECORD
5
1
100
AcDbSymbolTable
70
1
0
BLOCK_RECORD
5
1F
100
AcDbSymbolTableRecord
100
AcDbBlockTableRecord
2
*MODEL_SPACE
0
BLOCK_RECORD
5
1B
100
AcDbSymbolTableRecord
100
AcDbBlockTableRecord
2
*PAPER_SPACE
0
ENDTAB
0
ENDSEC
0
SECTION
2
BLOCKS
0
BLOCK
5
20
100
AcDbEntity
100
AcDbBlockBegin
2
*MODEL_SPACE
0
ENDBLK
5
21
100
AcDbEntity
100
AcDbBlockEnd
0
BLOCK
5
1C
100
AcDbEntity
100
AcDbBlockBegin
2
*PAPER_SPACE
0
ENDBLK
5
1D
100
AcDbEntity
100
AcDbBlockEnd
0
ENDSEC
0
SECTION
2
ENTITIES
0
CIRCLE
5
100
100
AcDbEntity
8
0
100
AcDbCircle
10
6.2199999999999998
20
16.569999999999997
30
0
40
0.43750000000000006
0
CIRCLE
5
101
100
AcDbEntity
8
0
100
AcDbCircle
10
6.2199999999999998
20
18.569999999999997
30
0
40
0.43750000000000006
0
CIRCLE
5
102
100
AcDbEntity
8
0
100
AcDbCircle
10
6.2199999999999998
20
20.569999999999993
30
0
40
0.43750000000000006
0
CIRCLE
5
103
100
AcDbEntity
8
0
100
AcDbCircle
10
6.2199999999999998
20
22.569999999999997
30
0
40
0.43750000000000006
0
CIRCLE
5
104
100
AcDbEntity
8
0
100
AcDbCircle
10
10.800000000000001
20
18.569999999999997
30
0
40
0.43750000000000006
0
CIRCLE
5
105
100
AcDbEntity
8
0
100
AcDbCircle
10
19.82
20
22.589999999999996
30
0
40
0.43750000000000006
0
CIRCLE
5
106
100
AcDbEntity
8
0
100
AcDbCircle
10
3.0000002086162558
20
-8
30
0
40
3.0000000000000004
0
CIRCLE
5
107
100
AcDbEntity
8
0
100
AcDbCircle
10
25.000000208616257
20
-8
30
0
40
3.0000000000000022
0
CIRCLE
5
108
100
AcDbEntity
8
0
100
AcDbCircle
10
3.0000002086162558
20
-34
30
0
40
2.9999999999999991
0
CIRCLE
5
109
100
AcDbEntity
8
0
100
AcDbCircle
10
25.000000208616257
20
-33.999999999999993
30
0
40
3
0
LINE
5
110
100
AcDbEntity
8
0
100
AcDbLine
10
35.940000000000005
20
-8
30
0
11
35.940000000000005
21
42.109999999999999
31
0
0
LINE
5
111
100
AcDbEntity
8
0
100
AcDbLine
10
32.190000000000005
20
45.860000000000014
30
0
11
-4.2499999999999973
21
45.859999999999999
31
0
0
LINE
5
112
100
AcDbEntity
8
0
100
AcDbLine
10
-7.9999999999999973
20
42.109999999999999
30
0
11
-8
21
-8
31
0
0
LWPOLYLINE
5
113
100
AcDbEntity
8
0
100
AcDbPolyline
90
4
70
1
43
0.0
10
28.140000000000001
20
14.799999999999997
10
-0.20000000000000004
20
14.799999999999995
10
-0.20000000000000018
20
38.060000000000002
10
28.140000000000001
20
38.060000000000002
0
LINE
5
114
100
AcDbEntity
8
0
100
AcDbLine
10
35.940000000000005
20
-8
30
0
11
35.940000000000005
21
-38.390000000000001
31
0
0
LINE
5
115
100
AcDbEntity
8
0
100
AcDbLine
10
-8.0000000000000036
20
-38.390000000000008
30
0
11
-8
21
-8
31
0
0
LINE
5
116
100
AcDbEntity
8
0
100
AcDbLine
10
-4.2500000000000089
20
-42.140000000000015
30
0
11
32.190000000000012
21
-42.140000000000015
31
0
0
ARC
5
117
100
AcDbEntity
8
0
100
AcDbCircle
10
-4.2499999999999973
20
42.109999999999999
30
0
40
3.75
100
AcDbArc
50
90
51
180
0
ARC
5
118
100
AcDbEntity
8
0
100
AcDbCircle
10
32.190000000000005
20
42.109999999999999
30
0
40
3.75
100
AcDbArc
50
0
51
90
0
ARC
5
119
100
AcDbEntity
8
0
100
AcDbCircle
10
32.190000000000005
20
-38.390000000000001
30
0
40
3.7500000000000089
100
AcDbArc
50
-89.999999999999901
51
0
0
ARC
5
120
100
AcDbEntity
8
0
100
AcDbCircle
10
-4.2499999999999938
20
-38.390000000000001
30
0
40
3.7500000000000089
100
AcDbArc
50
180
51
269.99999999999983
0
CIRCLE
5
121
100
AcDbEntity
8
0
100
AcDbCircle
10
6.0000000894069672
20
35.000000521540642
30
0
40
0.43750000000000006
0
CIRCLE
5
122
100
AcDbEntity
8
0
100
AcDbCircle
10
20.000000298023224
20
35.000000521540642
30
0
40
0.43750000000000006
0
CIRCLE
5
123
100
AcDbEntity
8
0
100
AcDbCircle
10
13.970000000000001
20
26.43
30
0
40
3.75
0
LWPOLYLINE
5
124
100
AcDbEntity
8
0
100
AcDbPolyline
90
6
70
1
43
0.0
10
-2.6868999429015572
20
-7.9999999999999982
10
0.15655013285735042
20
-3.0750000000000006
10
5.8434502843751641
20
-3.0750000000000037
10
8.686900360134068
20
-8.0000000000000036
10
5.8434502843751588
20
-12.925000000000001
10
0.15655013285734709
20
-12.924999999999997
0
LWPOLYLINE
5
125
100
AcDbEntity
8
0
100
AcDbPolyline
90
6
70
1
43
0.0
10
19.313100057098445
20
-7.9999999999999991
10
22.156550132857351
20
-3.0750000000000006
10
27.843450284375166
20
-3.075000000000002
10
30.686900360134072
20
-8.0000000000000018
10
27.843450284375166
20
-12.925000000000001
10
22.156550132857351
20
-12.925000000000001
0
LWPOLYLINE
5
126
100
AcDbEntity
8
0
100
AcDbPolyline
90
6
70
1
43
0.0
10
-2.6868999429015581
20
-34
10
0.15655013285735042
20
-29.075000000000003
10
5.8434502843751668
20
-29.075000000000006
10
8.686900360134068
20
-34.000000000000007
10
5.8434502843751579
20
-38.925000000000004
10
0.15655013285734432
20
-38.924999999999997
0
LWPOLYLINE
5
127
100
AcDbEntity
8
0
100
AcDbPolyline
90
6
70
1
43
0.0
10
19.313100057098442
20
-33.999999999999993
10
22.156550132857351
20
-29.074999999999992
10
27.843450284375169
20
-29.074999999999992
10
30.686900360134075
20
-33.999999999999993
10
27.843450284375166
20
-38.924999999999997
10
22.156550132857351
20
-38.924999999999997
0
ENDSEC
0
SECTION
2
OBJECTS
0
DICTIONARY
5
C
100
AcDbDictionary
3
ACAD_GROUP
350
D
3
ACAD_MLINESTYLE
350
17
0
DICTIONARY
5
D
100
AcDbDictionary
0
DICTIONARY
5
1A
330
C
100
AcDbDictionary
0
DICTIONARY
5
17
100
AcDbDictionary
0
ENDSEC
0
EOF
