<?xml version="1.0" encoding="utf-8"?>
<!-- Generator: Adobe Illustrator 21.1.0, SVG Export Plug-In . SVG Version: 6.00 Build 0)  -->
<svg version="1.1" id="Layer_1" xmlns="http://www.w3.org/2000/svg" xmlns:xlink="http://www.w3.org/1999/xlink" x="0px" y="0px"
	 viewBox="0 0 44 44" style="enable-background:new 0 0 44 44;" xml:space="preserve">
<path d="M13.5,14.1H1.6V2.2h4v5.1l0.8-0.8C15-2.1,29-2.1,37.6,6.4C41.7,10.6,44,16.1,44,22h-4c0-4.8-1.9-9.3-5.3-12.7
	c-7-7-18.4-7-25.5,0l-0.8,0.8h5.1L13.5,14.1L13.5,14.1z M30.5,33.9h5.1l-0.8,0.8c-7,7-18.4,7-25.5,0C5.9,31.3,4,26.8,4,22H0
	c0,5.9,2.3,11.4,6.4,15.6C10.7,41.8,16.4,44,22,44s11.3-2.1,15.6-6.4l0.8-0.8v5.1h4V29.9H30.5V33.9z"/>
</svg>
