<?xml version="1.0" encoding="utf-8"?>
<!-- Generator: Adobe Illustrator 21.1.0, SVG Export Plug-In . SVG Version: 6.00 Build 0)  -->
<svg version="1.1" id="Layer_1" xmlns="http://www.w3.org/2000/svg" xmlns:xlink="http://www.w3.org/1999/xlink" x="0px" y="0px"
	 viewBox="0 0 52 54.7" style="enable-background:new 0 0 52 54.7;" xml:space="preserve">
<title>Gear 3.3</title>
<desc>Created with Sketch.</desc>
<g>
	<g>
		<path d="M7.1,45.3c-1,0.5-2.2,0.2-2.8-0.8l-4.1-7.1c-0.6-1-0.2-2.2,0.7-2.8L3.8,33c0.9-0.6,1.7-1.9,1.7-3l0-5.2
			c0-1.1-0.8-2.5-1.7-3L1,20c-0.9-0.6-1.3-1.8-0.7-2.8l4.1-7.1c0.6-1,1.8-1.3,2.8-0.8l2.9,1.6c1,0.5,2.5,0.5,3.5,0L18,8.3
			c1-0.5,1.7-1.9,1.8-3L19.9,2c0-1.1,0.9-2,2.1-2l8.1,0c1.1,0,2,0.9,2.1,2l0.1,3.3c0,1.1,0.8,2.4,1.8,3l4.5,2.6c1,0.6,2.5,0.6,3.5,0
			l2.9-1.6c1-0.5,2.2-0.2,2.8,0.8l4.1,7.1c0.6,1,0.2,2.2-0.7,2.8l-2.8,1.7c-0.9,0.6-1.7,1.9-1.7,3l0,5.2c0,1.1,0.8,2.5,1.7,3
			l2.8,1.7c0.9,0.6,1.3,1.8,0.7,2.8l-4.1,7.1c-0.6,1-1.8,1.3-2.8,0.8L42,43.7c-1-0.5-2.5-0.5-3.5,0L34,46.4c-1,0.5-1.7,1.9-1.8,3
			l-0.1,3.3c0,1.1-0.9,2-2.1,2l-8.1,0c-1.1,0-2-0.9-2.1-2l-0.1-3.3c0-1.1-0.8-2.4-1.8-3l-4.5-2.6c-1-0.6-2.5-0.6-3.5,0L7.1,45.3z
			 M20,37.7c5.7,3.3,13.1,1.3,16.4-4.4s1.3-13.1-4.4-16.4c-5.7-3.3-13.1-1.3-16.4,4.4C12.3,27.1,14.2,34.4,20,37.7z"/>
	</g>
</g>
</svg>
