G75*
%MOIN*%
%OFA0B0*%
%FSLAX25Y25*%
%IPPOS*%
%LPD*%
%AMOC8*
5,1,8,0,0,1.08239X$1,22.5*
%
%ADD10C,0.00000*%
%ADD11R,0.04537X0.04931*%
%ADD12R,0.03750X0.03750*%
%ADD13R,0.04537X0.02569*%
%ADD14R,0.02765X0.05324*%
%ADD15R,0.04340X0.02017*%
%ADD16R,0.04931X0.04537*%
%ADD17C,0.04000*%
%ADD18R,0.05324X0.02765*%
%ADD19C,0.03969*%
%ADD20C,0.06200*%
%ADD21C,0.08000*%
%ADD22C,0.06506*%
%ADD23C,0.04756*%
%ADD24C,0.05324*%
%ADD25R,0.03750X0.01781*%
%ADD26R,0.01781X0.03750*%
%ADD27R,0.01781X0.11600*%
%ADD28C,0.06600*%
D10*
X0016800Y0011800D02*
X0116800Y0011800D01*
X0116940Y0011802D01*
X0117080Y0011808D01*
X0117220Y0011818D01*
X0117360Y0011831D01*
X0117499Y0011849D01*
X0117638Y0011871D01*
X0117775Y0011896D01*
X0117913Y0011925D01*
X0118049Y0011958D01*
X0118184Y0011995D01*
X0118318Y0012036D01*
X0118451Y0012081D01*
X0118583Y0012129D01*
X0118713Y0012181D01*
X0118842Y0012236D01*
X0118969Y0012295D01*
X0119095Y0012358D01*
X0119219Y0012424D01*
X0119340Y0012493D01*
X0119460Y0012566D01*
X0119578Y0012643D01*
X0119693Y0012722D01*
X0119807Y0012805D01*
X0119917Y0012891D01*
X0120026Y0012980D01*
X0120132Y0013072D01*
X0120235Y0013167D01*
X0120336Y0013264D01*
X0120433Y0013365D01*
X0120528Y0013468D01*
X0120620Y0013574D01*
X0120709Y0013683D01*
X0120795Y0013793D01*
X0120878Y0013907D01*
X0120957Y0014022D01*
X0121034Y0014140D01*
X0121107Y0014260D01*
X0121176Y0014381D01*
X0121242Y0014505D01*
X0121305Y0014631D01*
X0121364Y0014758D01*
X0121419Y0014887D01*
X0121471Y0015017D01*
X0121519Y0015149D01*
X0121564Y0015282D01*
X0121605Y0015416D01*
X0121642Y0015551D01*
X0121675Y0015687D01*
X0121704Y0015825D01*
X0121729Y0015962D01*
X0121751Y0016101D01*
X0121769Y0016240D01*
X0121782Y0016380D01*
X0121792Y0016520D01*
X0121798Y0016660D01*
X0121800Y0016800D01*
X0121800Y0096800D01*
X0121798Y0096940D01*
X0121792Y0097080D01*
X0121782Y0097220D01*
X0121769Y0097360D01*
X0121751Y0097499D01*
X0121729Y0097638D01*
X0121704Y0097775D01*
X0121675Y0097913D01*
X0121642Y0098049D01*
X0121605Y0098184D01*
X0121564Y0098318D01*
X0121519Y0098451D01*
X0121471Y0098583D01*
X0121419Y0098713D01*
X0121364Y0098842D01*
X0121305Y0098969D01*
X0121242Y0099095D01*
X0121176Y0099219D01*
X0121107Y0099340D01*
X0121034Y0099460D01*
X0120957Y0099578D01*
X0120878Y0099693D01*
X0120795Y0099807D01*
X0120709Y0099917D01*
X0120620Y0100026D01*
X0120528Y0100132D01*
X0120433Y0100235D01*
X0120336Y0100336D01*
X0120235Y0100433D01*
X0120132Y0100528D01*
X0120026Y0100620D01*
X0119917Y0100709D01*
X0119807Y0100795D01*
X0119693Y0100878D01*
X0119578Y0100957D01*
X0119460Y0101034D01*
X0119340Y0101107D01*
X0119219Y0101176D01*
X0119095Y0101242D01*
X0118969Y0101305D01*
X0118842Y0101364D01*
X0118713Y0101419D01*
X0118583Y0101471D01*
X0118451Y0101519D01*
X0118318Y0101564D01*
X0118184Y0101605D01*
X0118049Y0101642D01*
X0117913Y0101675D01*
X0117775Y0101704D01*
X0117638Y0101729D01*
X0117499Y0101751D01*
X0117360Y0101769D01*
X0117220Y0101782D01*
X0117080Y0101792D01*
X0116940Y0101798D01*
X0116800Y0101800D01*
X0016800Y0101800D01*
X0016660Y0101798D01*
X0016520Y0101792D01*
X0016380Y0101782D01*
X0016240Y0101769D01*
X0016101Y0101751D01*
X0015962Y0101729D01*
X0015825Y0101704D01*
X0015687Y0101675D01*
X0015551Y0101642D01*
X0015416Y0101605D01*
X0015282Y0101564D01*
X0015149Y0101519D01*
X0015017Y0101471D01*
X0014887Y0101419D01*
X0014758Y0101364D01*
X0014631Y0101305D01*
X0014505Y0101242D01*
X0014381Y0101176D01*
X0014260Y0101107D01*
X0014140Y0101034D01*
X0014022Y0100957D01*
X0013907Y0100878D01*
X0013793Y0100795D01*
X0013683Y0100709D01*
X0013574Y0100620D01*
X0013468Y0100528D01*
X0013365Y0100433D01*
X0013264Y0100336D01*
X0013167Y0100235D01*
X0013072Y0100132D01*
X0012980Y0100026D01*
X0012891Y0099917D01*
X0012805Y0099807D01*
X0012722Y0099693D01*
X0012643Y0099578D01*
X0012566Y0099460D01*
X0012493Y0099340D01*
X0012424Y0099219D01*
X0012358Y0099095D01*
X0012295Y0098969D01*
X0012236Y0098842D01*
X0012181Y0098713D01*
X0012129Y0098583D01*
X0012081Y0098451D01*
X0012036Y0098318D01*
X0011995Y0098184D01*
X0011958Y0098049D01*
X0011925Y0097913D01*
X0011896Y0097775D01*
X0011871Y0097638D01*
X0011849Y0097499D01*
X0011831Y0097360D01*
X0011818Y0097220D01*
X0011808Y0097080D01*
X0011802Y0096940D01*
X0011800Y0096800D01*
X0011800Y0016800D01*
X0011802Y0016660D01*
X0011808Y0016520D01*
X0011818Y0016380D01*
X0011831Y0016240D01*
X0011849Y0016101D01*
X0011871Y0015962D01*
X0011896Y0015825D01*
X0011925Y0015687D01*
X0011958Y0015551D01*
X0011995Y0015416D01*
X0012036Y0015282D01*
X0012081Y0015149D01*
X0012129Y0015017D01*
X0012181Y0014887D01*
X0012236Y0014758D01*
X0012295Y0014631D01*
X0012358Y0014505D01*
X0012424Y0014381D01*
X0012493Y0014260D01*
X0012566Y0014140D01*
X0012643Y0014022D01*
X0012722Y0013907D01*
X0012805Y0013793D01*
X0012891Y0013683D01*
X0012980Y0013574D01*
X0013072Y0013468D01*
X0013167Y0013365D01*
X0013264Y0013264D01*
X0013365Y0013167D01*
X0013468Y0013072D01*
X0013574Y0012980D01*
X0013683Y0012891D01*
X0013793Y0012805D01*
X0013907Y0012722D01*
X0014022Y0012643D01*
X0014140Y0012566D01*
X0014260Y0012493D01*
X0014381Y0012424D01*
X0014505Y0012358D01*
X0014631Y0012295D01*
X0014758Y0012236D01*
X0014887Y0012181D01*
X0015017Y0012129D01*
X0015149Y0012081D01*
X0015282Y0012036D01*
X0015416Y0011995D01*
X0015551Y0011958D01*
X0015687Y0011925D01*
X0015825Y0011896D01*
X0015962Y0011871D01*
X0016101Y0011849D01*
X0016240Y0011831D01*
X0016380Y0011818D01*
X0016520Y0011808D01*
X0016660Y0011802D01*
X0016800Y0011800D01*
X0089200Y0017800D02*
X0089202Y0017882D01*
X0089208Y0017964D01*
X0089218Y0018046D01*
X0089232Y0018127D01*
X0089249Y0018207D01*
X0089271Y0018286D01*
X0089296Y0018364D01*
X0089326Y0018441D01*
X0089358Y0018516D01*
X0089395Y0018590D01*
X0089435Y0018662D01*
X0089478Y0018732D01*
X0089525Y0018799D01*
X0089575Y0018865D01*
X0089628Y0018927D01*
X0089683Y0018987D01*
X0089742Y0019045D01*
X0089804Y0019099D01*
X0089868Y0019151D01*
X0089934Y0019199D01*
X0090003Y0019244D01*
X0090074Y0019286D01*
X0090147Y0019324D01*
X0090221Y0019359D01*
X0090297Y0019390D01*
X0090375Y0019417D01*
X0090453Y0019440D01*
X0090533Y0019460D01*
X0090614Y0019476D01*
X0090695Y0019488D01*
X0090777Y0019496D01*
X0090859Y0019500D01*
X0090941Y0019500D01*
X0091023Y0019496D01*
X0091105Y0019488D01*
X0091186Y0019476D01*
X0091267Y0019460D01*
X0091347Y0019440D01*
X0091425Y0019417D01*
X0091503Y0019390D01*
X0091579Y0019359D01*
X0091653Y0019324D01*
X0091726Y0019286D01*
X0091797Y0019244D01*
X0091866Y0019199D01*
X0091932Y0019151D01*
X0091996Y0019099D01*
X0092058Y0019045D01*
X0092117Y0018987D01*
X0092172Y0018927D01*
X0092225Y0018865D01*
X0092275Y0018799D01*
X0092322Y0018732D01*
X0092365Y0018662D01*
X0092405Y0018590D01*
X0092442Y0018516D01*
X0092474Y0018441D01*
X0092504Y0018364D01*
X0092529Y0018286D01*
X0092551Y0018207D01*
X0092568Y0018127D01*
X0092582Y0018046D01*
X0092592Y0017964D01*
X0092598Y0017882D01*
X0092600Y0017800D01*
X0092598Y0017718D01*
X0092592Y0017636D01*
X0092582Y0017554D01*
X0092568Y0017473D01*
X0092551Y0017393D01*
X0092529Y0017314D01*
X0092504Y0017236D01*
X0092474Y0017159D01*
X0092442Y0017084D01*
X0092405Y0017010D01*
X0092365Y0016938D01*
X0092322Y0016868D01*
X0092275Y0016801D01*
X0092225Y0016735D01*
X0092172Y0016673D01*
X0092117Y0016613D01*
X0092058Y0016555D01*
X0091996Y0016501D01*
X0091932Y0016449D01*
X0091866Y0016401D01*
X0091797Y0016356D01*
X0091726Y0016314D01*
X0091653Y0016276D01*
X0091579Y0016241D01*
X0091503Y0016210D01*
X0091425Y0016183D01*
X0091347Y0016160D01*
X0091267Y0016140D01*
X0091186Y0016124D01*
X0091105Y0016112D01*
X0091023Y0016104D01*
X0090941Y0016100D01*
X0090859Y0016100D01*
X0090777Y0016104D01*
X0090695Y0016112D01*
X0090614Y0016124D01*
X0090533Y0016140D01*
X0090453Y0016160D01*
X0090375Y0016183D01*
X0090297Y0016210D01*
X0090221Y0016241D01*
X0090147Y0016276D01*
X0090074Y0016314D01*
X0090003Y0016356D01*
X0089934Y0016401D01*
X0089868Y0016449D01*
X0089804Y0016501D01*
X0089742Y0016555D01*
X0089683Y0016613D01*
X0089628Y0016673D01*
X0089575Y0016735D01*
X0089525Y0016801D01*
X0089478Y0016868D01*
X0089435Y0016938D01*
X0089395Y0017010D01*
X0089358Y0017084D01*
X0089326Y0017159D01*
X0089296Y0017236D01*
X0089271Y0017314D01*
X0089249Y0017393D01*
X0089232Y0017473D01*
X0089218Y0017554D01*
X0089208Y0017636D01*
X0089202Y0017718D01*
X0089200Y0017800D01*
X0101000Y0017800D02*
X0101002Y0017882D01*
X0101008Y0017964D01*
X0101018Y0018046D01*
X0101032Y0018127D01*
X0101049Y0018207D01*
X0101071Y0018286D01*
X0101096Y0018364D01*
X0101126Y0018441D01*
X0101158Y0018516D01*
X0101195Y0018590D01*
X0101235Y0018662D01*
X0101278Y0018732D01*
X0101325Y0018799D01*
X0101375Y0018865D01*
X0101428Y0018927D01*
X0101483Y0018987D01*
X0101542Y0019045D01*
X0101604Y0019099D01*
X0101668Y0019151D01*
X0101734Y0019199D01*
X0101803Y0019244D01*
X0101874Y0019286D01*
X0101947Y0019324D01*
X0102021Y0019359D01*
X0102097Y0019390D01*
X0102175Y0019417D01*
X0102253Y0019440D01*
X0102333Y0019460D01*
X0102414Y0019476D01*
X0102495Y0019488D01*
X0102577Y0019496D01*
X0102659Y0019500D01*
X0102741Y0019500D01*
X0102823Y0019496D01*
X0102905Y0019488D01*
X0102986Y0019476D01*
X0103067Y0019460D01*
X0103147Y0019440D01*
X0103225Y0019417D01*
X0103303Y0019390D01*
X0103379Y0019359D01*
X0103453Y0019324D01*
X0103526Y0019286D01*
X0103597Y0019244D01*
X0103666Y0019199D01*
X0103732Y0019151D01*
X0103796Y0019099D01*
X0103858Y0019045D01*
X0103917Y0018987D01*
X0103972Y0018927D01*
X0104025Y0018865D01*
X0104075Y0018799D01*
X0104122Y0018732D01*
X0104165Y0018662D01*
X0104205Y0018590D01*
X0104242Y0018516D01*
X0104274Y0018441D01*
X0104304Y0018364D01*
X0104329Y0018286D01*
X0104351Y0018207D01*
X0104368Y0018127D01*
X0104382Y0018046D01*
X0104392Y0017964D01*
X0104398Y0017882D01*
X0104400Y0017800D01*
X0104398Y0017718D01*
X0104392Y0017636D01*
X0104382Y0017554D01*
X0104368Y0017473D01*
X0104351Y0017393D01*
X0104329Y0017314D01*
X0104304Y0017236D01*
X0104274Y0017159D01*
X0104242Y0017084D01*
X0104205Y0017010D01*
X0104165Y0016938D01*
X0104122Y0016868D01*
X0104075Y0016801D01*
X0104025Y0016735D01*
X0103972Y0016673D01*
X0103917Y0016613D01*
X0103858Y0016555D01*
X0103796Y0016501D01*
X0103732Y0016449D01*
X0103666Y0016401D01*
X0103597Y0016356D01*
X0103526Y0016314D01*
X0103453Y0016276D01*
X0103379Y0016241D01*
X0103303Y0016210D01*
X0103225Y0016183D01*
X0103147Y0016160D01*
X0103067Y0016140D01*
X0102986Y0016124D01*
X0102905Y0016112D01*
X0102823Y0016104D01*
X0102741Y0016100D01*
X0102659Y0016100D01*
X0102577Y0016104D01*
X0102495Y0016112D01*
X0102414Y0016124D01*
X0102333Y0016140D01*
X0102253Y0016160D01*
X0102175Y0016183D01*
X0102097Y0016210D01*
X0102021Y0016241D01*
X0101947Y0016276D01*
X0101874Y0016314D01*
X0101803Y0016356D01*
X0101734Y0016401D01*
X0101668Y0016449D01*
X0101604Y0016501D01*
X0101542Y0016555D01*
X0101483Y0016613D01*
X0101428Y0016673D01*
X0101375Y0016735D01*
X0101325Y0016801D01*
X0101278Y0016868D01*
X0101235Y0016938D01*
X0101195Y0017010D01*
X0101158Y0017084D01*
X0101126Y0017159D01*
X0101096Y0017236D01*
X0101071Y0017314D01*
X0101049Y0017393D01*
X0101032Y0017473D01*
X0101018Y0017554D01*
X0101008Y0017636D01*
X0101002Y0017718D01*
X0101000Y0017800D01*
D11*
X0116489Y0016143D03*
X0116489Y0022836D03*
X0109050Y0035704D03*
X0109050Y0042396D03*
X0042700Y0087154D03*
X0037850Y0087154D03*
X0037850Y0093846D03*
X0042700Y0093846D03*
X0027550Y0062246D03*
X0020150Y0062046D03*
X0020150Y0055354D03*
X0027550Y0055554D03*
D12*
X0033400Y0088547D03*
X0033400Y0094453D03*
X0047100Y0094353D03*
X0047100Y0088447D03*
D13*
X0036507Y0064009D03*
X0036507Y0058891D03*
X0043593Y0061450D03*
X0097257Y0041609D03*
X0097257Y0036491D03*
X0104343Y0039050D03*
D14*
X0027590Y0039681D03*
X0023850Y0039681D03*
X0020110Y0039681D03*
X0020110Y0049919D03*
X0027590Y0049919D03*
D15*
X0029290Y0022109D03*
X0029290Y0019550D03*
X0029290Y0016991D03*
X0021810Y0016991D03*
X0021810Y0019550D03*
X0021810Y0022109D03*
X0074310Y0020859D03*
X0074310Y0018300D03*
X0074310Y0015741D03*
X0081790Y0015741D03*
X0081790Y0018300D03*
X0081790Y0020859D03*
D16*
X0082204Y0025400D03*
X0088896Y0025400D03*
X0100254Y0048700D03*
X0100254Y0053600D03*
X0106946Y0053600D03*
X0106946Y0048700D03*
X0106946Y0063200D03*
X0100254Y0063200D03*
X0049146Y0050050D03*
X0042454Y0050050D03*
X0027196Y0033200D03*
X0020504Y0033200D03*
D17*
X0090900Y0017800D03*
X0102700Y0017800D03*
D18*
X0097931Y0023310D03*
X0097931Y0030790D03*
X0108169Y0030790D03*
X0108169Y0027050D03*
X0108169Y0023310D03*
D19*
X0071918Y0072499D03*
X0066800Y0072499D03*
X0061682Y0072499D03*
X0064241Y0078601D03*
X0069359Y0078601D03*
D20*
X0082942Y0075550D03*
X0050658Y0075550D03*
D21*
X0061800Y0092509D03*
X0071800Y0092509D03*
D22*
X0116800Y0095578D03*
X0116800Y0068022D03*
D23*
X0106170Y0071957D03*
X0106170Y0091643D03*
D24*
X0089822Y0073109D03*
X0089822Y0065235D03*
X0089822Y0041613D03*
X0089822Y0033739D03*
X0036278Y0033739D03*
X0036278Y0041613D03*
X0036278Y0049487D03*
X0036278Y0025865D03*
X0036278Y0017991D03*
X0036278Y0073109D03*
D25*
X0054164Y0059893D03*
X0054164Y0057924D03*
X0054164Y0055956D03*
X0054164Y0053987D03*
X0054164Y0052019D03*
X0054164Y0050050D03*
X0054164Y0048081D03*
X0054164Y0046113D03*
X0054164Y0044144D03*
X0054164Y0042176D03*
X0054164Y0040207D03*
X0080936Y0040207D03*
X0080936Y0042176D03*
X0080936Y0044144D03*
X0080936Y0046113D03*
X0080936Y0048081D03*
X0080936Y0050050D03*
X0080936Y0052019D03*
X0080936Y0053987D03*
X0080936Y0055956D03*
X0080936Y0057924D03*
X0080936Y0059893D03*
D26*
X0077393Y0063436D03*
X0075424Y0063436D03*
X0073456Y0063436D03*
X0071487Y0063436D03*
X0069519Y0063436D03*
X0067550Y0063436D03*
X0065581Y0063436D03*
X0063613Y0063436D03*
X0061644Y0063436D03*
X0059676Y0063436D03*
X0057707Y0063436D03*
X0057707Y0036664D03*
X0059676Y0036664D03*
X0061644Y0036664D03*
X0063613Y0036664D03*
X0065581Y0036664D03*
X0067550Y0036664D03*
X0069519Y0036664D03*
X0071487Y0036664D03*
X0073456Y0036664D03*
X0075424Y0036664D03*
X0077393Y0036664D03*
D27*
X0070040Y0025400D03*
X0066300Y0025400D03*
X0062560Y0025400D03*
D28*
X0081800Y0094500D03*
X0091800Y0094500D03*
X0102200Y0096900D03*
M02*
