%
M48
M72
T01C0.01969
T02C0.02362
T03C0.02756
T04C0.03150
T05C0.03400
T06C0.03937
T07C0.04000
%
T01
X108800Y18000
X95800Y17300
X76700Y24800
X58800Y26800
X49800Y17800
X56800Y15300
X47300Y31800
X44800Y44300
X61300Y50600
X67800Y48300
X75800Y40800
X85000Y52900
X89800Y47100
X75800Y56800
X71800Y56800
X67800Y56800
X58600Y56800
X57850Y67550
X52600Y70300
X49300Y67300
X57700Y76500
X56200Y81100
X64241Y78601
X69359Y78601
X66800Y72499
X71918Y72499
X75250Y70000
X84600Y64850
X76200Y81300
X81000Y82200
X61682Y72499
X40700Y81500
X32800Y77800
X32000Y63200
X16300Y41300
X106800Y58300
X113700Y58500
X114800Y41800
T02
X56800Y22300
X15600Y27300
T03
X50658Y75550
X82942Y75550
X106170Y71957
X106170Y91643
T04
X89822Y33739
X89822Y41613
X89822Y65235
X89822Y73109
X36278Y73109
X36278Y49487
X36278Y41613
X36278Y33739
X36278Y25865
X36278Y17991
T05
X90900Y17800
X102700Y17800
T06
X116800Y68022
X116800Y95578
T07
X71800Y92509
X61800Y92509
X81800Y94500
X91800Y94500
X102200Y96900
M30
