G75*
%MOIN*%
%OFA0B0*%
%FSLAX25Y25*%
%IPPOS*%
%LPD*%
%AMOC8*
5,1,8,0,0,1.08239X$1,22.5*
%
%ADD10C,0.00000*%
%ADD11C,0.00400*%
%ADD12R,0.03000X0.01800*%
%ADD13C,0.00200*%
%ADD14R,0.00591X0.01181*%
%ADD15R,0.01181X0.01181*%
%ADD16C,0.00800*%
%ADD17C,0.01000*%
%ADD18C,0.00591*%
%ADD19R,0.01800X0.03000*%
%ADD20C,0.00500*%
D10*
X0016800Y0011800D02*
X0116800Y0011800D01*
X0116940Y0011802D01*
X0117080Y0011808D01*
X0117220Y0011818D01*
X0117360Y0011831D01*
X0117499Y0011849D01*
X0117638Y0011871D01*
X0117775Y0011896D01*
X0117913Y0011925D01*
X0118049Y0011958D01*
X0118184Y0011995D01*
X0118318Y0012036D01*
X0118451Y0012081D01*
X0118583Y0012129D01*
X0118713Y0012181D01*
X0118842Y0012236D01*
X0118969Y0012295D01*
X0119095Y0012358D01*
X0119219Y0012424D01*
X0119340Y0012493D01*
X0119460Y0012566D01*
X0119578Y0012643D01*
X0119693Y0012722D01*
X0119807Y0012805D01*
X0119917Y0012891D01*
X0120026Y0012980D01*
X0120132Y0013072D01*
X0120235Y0013167D01*
X0120336Y0013264D01*
X0120433Y0013365D01*
X0120528Y0013468D01*
X0120620Y0013574D01*
X0120709Y0013683D01*
X0120795Y0013793D01*
X0120878Y0013907D01*
X0120957Y0014022D01*
X0121034Y0014140D01*
X0121107Y0014260D01*
X0121176Y0014381D01*
X0121242Y0014505D01*
X0121305Y0014631D01*
X0121364Y0014758D01*
X0121419Y0014887D01*
X0121471Y0015017D01*
X0121519Y0015149D01*
X0121564Y0015282D01*
X0121605Y0015416D01*
X0121642Y0015551D01*
X0121675Y0015687D01*
X0121704Y0015825D01*
X0121729Y0015962D01*
X0121751Y0016101D01*
X0121769Y0016240D01*
X0121782Y0016380D01*
X0121792Y0016520D01*
X0121798Y0016660D01*
X0121800Y0016800D01*
X0121800Y0096800D01*
X0121798Y0096940D01*
X0121792Y0097080D01*
X0121782Y0097220D01*
X0121769Y0097360D01*
X0121751Y0097499D01*
X0121729Y0097638D01*
X0121704Y0097775D01*
X0121675Y0097913D01*
X0121642Y0098049D01*
X0121605Y0098184D01*
X0121564Y0098318D01*
X0121519Y0098451D01*
X0121471Y0098583D01*
X0121419Y0098713D01*
X0121364Y0098842D01*
X0121305Y0098969D01*
X0121242Y0099095D01*
X0121176Y0099219D01*
X0121107Y0099340D01*
X0121034Y0099460D01*
X0120957Y0099578D01*
X0120878Y0099693D01*
X0120795Y0099807D01*
X0120709Y0099917D01*
X0120620Y0100026D01*
X0120528Y0100132D01*
X0120433Y0100235D01*
X0120336Y0100336D01*
X0120235Y0100433D01*
X0120132Y0100528D01*
X0120026Y0100620D01*
X0119917Y0100709D01*
X0119807Y0100795D01*
X0119693Y0100878D01*
X0119578Y0100957D01*
X0119460Y0101034D01*
X0119340Y0101107D01*
X0119219Y0101176D01*
X0119095Y0101242D01*
X0118969Y0101305D01*
X0118842Y0101364D01*
X0118713Y0101419D01*
X0118583Y0101471D01*
X0118451Y0101519D01*
X0118318Y0101564D01*
X0118184Y0101605D01*
X0118049Y0101642D01*
X0117913Y0101675D01*
X0117775Y0101704D01*
X0117638Y0101729D01*
X0117499Y0101751D01*
X0117360Y0101769D01*
X0117220Y0101782D01*
X0117080Y0101792D01*
X0116940Y0101798D01*
X0116800Y0101800D01*
X0016800Y0101800D01*
X0016660Y0101798D01*
X0016520Y0101792D01*
X0016380Y0101782D01*
X0016240Y0101769D01*
X0016101Y0101751D01*
X0015962Y0101729D01*
X0015825Y0101704D01*
X0015687Y0101675D01*
X0015551Y0101642D01*
X0015416Y0101605D01*
X0015282Y0101564D01*
X0015149Y0101519D01*
X0015017Y0101471D01*
X0014887Y0101419D01*
X0014758Y0101364D01*
X0014631Y0101305D01*
X0014505Y0101242D01*
X0014381Y0101176D01*
X0014260Y0101107D01*
X0014140Y0101034D01*
X0014022Y0100957D01*
X0013907Y0100878D01*
X0013793Y0100795D01*
X0013683Y0100709D01*
X0013574Y0100620D01*
X0013468Y0100528D01*
X0013365Y0100433D01*
X0013264Y0100336D01*
X0013167Y0100235D01*
X0013072Y0100132D01*
X0012980Y0100026D01*
X0012891Y0099917D01*
X0012805Y0099807D01*
X0012722Y0099693D01*
X0012643Y0099578D01*
X0012566Y0099460D01*
X0012493Y0099340D01*
X0012424Y0099219D01*
X0012358Y0099095D01*
X0012295Y0098969D01*
X0012236Y0098842D01*
X0012181Y0098713D01*
X0012129Y0098583D01*
X0012081Y0098451D01*
X0012036Y0098318D01*
X0011995Y0098184D01*
X0011958Y0098049D01*
X0011925Y0097913D01*
X0011896Y0097775D01*
X0011871Y0097638D01*
X0011849Y0097499D01*
X0011831Y0097360D01*
X0011818Y0097220D01*
X0011808Y0097080D01*
X0011802Y0096940D01*
X0011800Y0096800D01*
X0011800Y0016800D01*
X0011802Y0016660D01*
X0011808Y0016520D01*
X0011818Y0016380D01*
X0011831Y0016240D01*
X0011849Y0016101D01*
X0011871Y0015962D01*
X0011896Y0015825D01*
X0011925Y0015687D01*
X0011958Y0015551D01*
X0011995Y0015416D01*
X0012036Y0015282D01*
X0012081Y0015149D01*
X0012129Y0015017D01*
X0012181Y0014887D01*
X0012236Y0014758D01*
X0012295Y0014631D01*
X0012358Y0014505D01*
X0012424Y0014381D01*
X0012493Y0014260D01*
X0012566Y0014140D01*
X0012643Y0014022D01*
X0012722Y0013907D01*
X0012805Y0013793D01*
X0012891Y0013683D01*
X0012980Y0013574D01*
X0013072Y0013468D01*
X0013167Y0013365D01*
X0013264Y0013264D01*
X0013365Y0013167D01*
X0013468Y0013072D01*
X0013574Y0012980D01*
X0013683Y0012891D01*
X0013793Y0012805D01*
X0013907Y0012722D01*
X0014022Y0012643D01*
X0014140Y0012566D01*
X0014260Y0012493D01*
X0014381Y0012424D01*
X0014505Y0012358D01*
X0014631Y0012295D01*
X0014758Y0012236D01*
X0014887Y0012181D01*
X0015017Y0012129D01*
X0015149Y0012081D01*
X0015282Y0012036D01*
X0015416Y0011995D01*
X0015551Y0011958D01*
X0015687Y0011925D01*
X0015825Y0011896D01*
X0015962Y0011871D01*
X0016101Y0011849D01*
X0016240Y0011831D01*
X0016380Y0011818D01*
X0016520Y0011808D01*
X0016660Y0011802D01*
X0016800Y0011800D01*
X0089200Y0017800D02*
X0089202Y0017882D01*
X0089208Y0017964D01*
X0089218Y0018046D01*
X0089232Y0018127D01*
X0089249Y0018207D01*
X0089271Y0018286D01*
X0089296Y0018364D01*
X0089326Y0018441D01*
X0089358Y0018516D01*
X0089395Y0018590D01*
X0089435Y0018662D01*
X0089478Y0018732D01*
X0089525Y0018799D01*
X0089575Y0018865D01*
X0089628Y0018927D01*
X0089683Y0018987D01*
X0089742Y0019045D01*
X0089804Y0019099D01*
X0089868Y0019151D01*
X0089934Y0019199D01*
X0090003Y0019244D01*
X0090074Y0019286D01*
X0090147Y0019324D01*
X0090221Y0019359D01*
X0090297Y0019390D01*
X0090375Y0019417D01*
X0090453Y0019440D01*
X0090533Y0019460D01*
X0090614Y0019476D01*
X0090695Y0019488D01*
X0090777Y0019496D01*
X0090859Y0019500D01*
X0090941Y0019500D01*
X0091023Y0019496D01*
X0091105Y0019488D01*
X0091186Y0019476D01*
X0091267Y0019460D01*
X0091347Y0019440D01*
X0091425Y0019417D01*
X0091503Y0019390D01*
X0091579Y0019359D01*
X0091653Y0019324D01*
X0091726Y0019286D01*
X0091797Y0019244D01*
X0091866Y0019199D01*
X0091932Y0019151D01*
X0091996Y0019099D01*
X0092058Y0019045D01*
X0092117Y0018987D01*
X0092172Y0018927D01*
X0092225Y0018865D01*
X0092275Y0018799D01*
X0092322Y0018732D01*
X0092365Y0018662D01*
X0092405Y0018590D01*
X0092442Y0018516D01*
X0092474Y0018441D01*
X0092504Y0018364D01*
X0092529Y0018286D01*
X0092551Y0018207D01*
X0092568Y0018127D01*
X0092582Y0018046D01*
X0092592Y0017964D01*
X0092598Y0017882D01*
X0092600Y0017800D01*
X0092598Y0017718D01*
X0092592Y0017636D01*
X0092582Y0017554D01*
X0092568Y0017473D01*
X0092551Y0017393D01*
X0092529Y0017314D01*
X0092504Y0017236D01*
X0092474Y0017159D01*
X0092442Y0017084D01*
X0092405Y0017010D01*
X0092365Y0016938D01*
X0092322Y0016868D01*
X0092275Y0016801D01*
X0092225Y0016735D01*
X0092172Y0016673D01*
X0092117Y0016613D01*
X0092058Y0016555D01*
X0091996Y0016501D01*
X0091932Y0016449D01*
X0091866Y0016401D01*
X0091797Y0016356D01*
X0091726Y0016314D01*
X0091653Y0016276D01*
X0091579Y0016241D01*
X0091503Y0016210D01*
X0091425Y0016183D01*
X0091347Y0016160D01*
X0091267Y0016140D01*
X0091186Y0016124D01*
X0091105Y0016112D01*
X0091023Y0016104D01*
X0090941Y0016100D01*
X0090859Y0016100D01*
X0090777Y0016104D01*
X0090695Y0016112D01*
X0090614Y0016124D01*
X0090533Y0016140D01*
X0090453Y0016160D01*
X0090375Y0016183D01*
X0090297Y0016210D01*
X0090221Y0016241D01*
X0090147Y0016276D01*
X0090074Y0016314D01*
X0090003Y0016356D01*
X0089934Y0016401D01*
X0089868Y0016449D01*
X0089804Y0016501D01*
X0089742Y0016555D01*
X0089683Y0016613D01*
X0089628Y0016673D01*
X0089575Y0016735D01*
X0089525Y0016801D01*
X0089478Y0016868D01*
X0089435Y0016938D01*
X0089395Y0017010D01*
X0089358Y0017084D01*
X0089326Y0017159D01*
X0089296Y0017236D01*
X0089271Y0017314D01*
X0089249Y0017393D01*
X0089232Y0017473D01*
X0089218Y0017554D01*
X0089208Y0017636D01*
X0089202Y0017718D01*
X0089200Y0017800D01*
X0101000Y0017800D02*
X0101002Y0017882D01*
X0101008Y0017964D01*
X0101018Y0018046D01*
X0101032Y0018127D01*
X0101049Y0018207D01*
X0101071Y0018286D01*
X0101096Y0018364D01*
X0101126Y0018441D01*
X0101158Y0018516D01*
X0101195Y0018590D01*
X0101235Y0018662D01*
X0101278Y0018732D01*
X0101325Y0018799D01*
X0101375Y0018865D01*
X0101428Y0018927D01*
X0101483Y0018987D01*
X0101542Y0019045D01*
X0101604Y0019099D01*
X0101668Y0019151D01*
X0101734Y0019199D01*
X0101803Y0019244D01*
X0101874Y0019286D01*
X0101947Y0019324D01*
X0102021Y0019359D01*
X0102097Y0019390D01*
X0102175Y0019417D01*
X0102253Y0019440D01*
X0102333Y0019460D01*
X0102414Y0019476D01*
X0102495Y0019488D01*
X0102577Y0019496D01*
X0102659Y0019500D01*
X0102741Y0019500D01*
X0102823Y0019496D01*
X0102905Y0019488D01*
X0102986Y0019476D01*
X0103067Y0019460D01*
X0103147Y0019440D01*
X0103225Y0019417D01*
X0103303Y0019390D01*
X0103379Y0019359D01*
X0103453Y0019324D01*
X0103526Y0019286D01*
X0103597Y0019244D01*
X0103666Y0019199D01*
X0103732Y0019151D01*
X0103796Y0019099D01*
X0103858Y0019045D01*
X0103917Y0018987D01*
X0103972Y0018927D01*
X0104025Y0018865D01*
X0104075Y0018799D01*
X0104122Y0018732D01*
X0104165Y0018662D01*
X0104205Y0018590D01*
X0104242Y0018516D01*
X0104274Y0018441D01*
X0104304Y0018364D01*
X0104329Y0018286D01*
X0104351Y0018207D01*
X0104368Y0018127D01*
X0104382Y0018046D01*
X0104392Y0017964D01*
X0104398Y0017882D01*
X0104400Y0017800D01*
X0104398Y0017718D01*
X0104392Y0017636D01*
X0104382Y0017554D01*
X0104368Y0017473D01*
X0104351Y0017393D01*
X0104329Y0017314D01*
X0104304Y0017236D01*
X0104274Y0017159D01*
X0104242Y0017084D01*
X0104205Y0017010D01*
X0104165Y0016938D01*
X0104122Y0016868D01*
X0104075Y0016801D01*
X0104025Y0016735D01*
X0103972Y0016673D01*
X0103917Y0016613D01*
X0103858Y0016555D01*
X0103796Y0016501D01*
X0103732Y0016449D01*
X0103666Y0016401D01*
X0103597Y0016356D01*
X0103526Y0016314D01*
X0103453Y0016276D01*
X0103379Y0016241D01*
X0103303Y0016210D01*
X0103225Y0016183D01*
X0103147Y0016160D01*
X0103067Y0016140D01*
X0102986Y0016124D01*
X0102905Y0016112D01*
X0102823Y0016104D01*
X0102741Y0016100D01*
X0102659Y0016100D01*
X0102577Y0016104D01*
X0102495Y0016112D01*
X0102414Y0016124D01*
X0102333Y0016140D01*
X0102253Y0016160D01*
X0102175Y0016183D01*
X0102097Y0016210D01*
X0102021Y0016241D01*
X0101947Y0016276D01*
X0101874Y0016314D01*
X0101803Y0016356D01*
X0101734Y0016401D01*
X0101668Y0016449D01*
X0101604Y0016501D01*
X0101542Y0016555D01*
X0101483Y0016613D01*
X0101428Y0016673D01*
X0101375Y0016735D01*
X0101325Y0016801D01*
X0101278Y0016868D01*
X0101235Y0016938D01*
X0101195Y0017010D01*
X0101158Y0017084D01*
X0101126Y0017159D01*
X0101096Y0017236D01*
X0101071Y0017314D01*
X0101049Y0017393D01*
X0101032Y0017473D01*
X0101018Y0017554D01*
X0101008Y0017636D01*
X0101002Y0017718D01*
X0101000Y0017800D01*
D11*
X0092673Y0015500D02*
X0092673Y0020104D01*
X0089604Y0020104D02*
X0092673Y0015500D01*
X0089604Y0015500D02*
X0089604Y0020104D01*
X0088069Y0019337D02*
X0087302Y0020104D01*
X0085767Y0020104D01*
X0085000Y0019337D01*
X0085000Y0016267D01*
X0085767Y0015500D01*
X0087302Y0015500D01*
X0088069Y0016267D01*
X0088069Y0019337D01*
X0018350Y0071421D02*
X0018350Y0072956D01*
X0017583Y0073723D01*
X0017583Y0075257D02*
X0016048Y0075257D01*
X0015281Y0076025D01*
X0015281Y0077559D01*
X0016048Y0078327D01*
X0016815Y0078327D01*
X0016815Y0075257D01*
X0017583Y0075257D02*
X0018350Y0076025D01*
X0018350Y0077559D01*
X0018350Y0079861D02*
X0015281Y0079861D01*
X0016815Y0079861D02*
X0015281Y0081396D01*
X0015281Y0082163D01*
X0016048Y0083698D02*
X0015281Y0084465D01*
X0015281Y0086000D01*
X0016048Y0086767D01*
X0016815Y0086767D01*
X0016815Y0083698D01*
X0016048Y0083698D02*
X0017583Y0083698D01*
X0018350Y0084465D01*
X0018350Y0086000D01*
X0018350Y0088302D02*
X0018350Y0090604D01*
X0017583Y0091371D01*
X0016048Y0091371D01*
X0015281Y0090604D01*
X0015281Y0088302D01*
X0013746Y0088302D02*
X0018350Y0088302D01*
X0021246Y0088686D02*
X0025850Y0088686D01*
X0025850Y0090220D02*
X0025850Y0087151D01*
X0025850Y0085616D02*
X0025083Y0085616D01*
X0025083Y0084849D01*
X0025850Y0084849D01*
X0025850Y0085616D01*
X0025083Y0083314D02*
X0023548Y0083314D01*
X0022781Y0082547D01*
X0022781Y0081780D01*
X0023548Y0080245D01*
X0021246Y0080245D01*
X0021246Y0083314D01*
X0025083Y0083314D02*
X0025850Y0082547D01*
X0025850Y0081012D01*
X0025083Y0080245D01*
X0022781Y0087151D02*
X0021246Y0088686D01*
X0018350Y0092906D02*
X0015281Y0092906D01*
X0016815Y0092906D02*
X0015281Y0094440D01*
X0015281Y0095208D01*
X0016048Y0096742D02*
X0015281Y0097510D01*
X0015281Y0099044D01*
X0016048Y0099812D01*
X0017583Y0099812D01*
X0018350Y0099044D01*
X0018350Y0097510D01*
X0017583Y0096742D01*
X0016048Y0096742D01*
X0014513Y0073723D02*
X0013746Y0072956D01*
X0013746Y0071421D01*
X0014513Y0070654D01*
X0017583Y0070654D01*
X0018350Y0071421D01*
D12*
X0020150Y0058700D03*
X0027550Y0058900D03*
X0037850Y0090500D03*
X0042700Y0090500D03*
X0109050Y0039050D03*
X0116489Y0019489D03*
D13*
X0112889Y0020009D02*
X0110687Y0020009D01*
X0111054Y0019267D02*
X0110687Y0018900D01*
X0110687Y0018166D01*
X0111054Y0017799D01*
X0112522Y0017799D01*
X0111054Y0019267D01*
X0112522Y0019267D01*
X0112889Y0018900D01*
X0112889Y0018166D01*
X0112522Y0017799D01*
X0112889Y0017057D02*
X0112889Y0015589D01*
X0111421Y0017057D01*
X0111054Y0017057D01*
X0110687Y0016690D01*
X0110687Y0015956D01*
X0111054Y0015589D01*
X0112155Y0020009D02*
X0111421Y0021110D01*
X0112155Y0020009D02*
X0112889Y0021110D01*
X0113985Y0036772D02*
X0112517Y0038240D01*
X0112150Y0038240D01*
X0112150Y0038982D02*
X0112150Y0040450D01*
X0113618Y0038982D01*
X0113985Y0038982D01*
X0114352Y0039349D01*
X0114352Y0040083D01*
X0113985Y0040450D01*
X0114352Y0038240D02*
X0114352Y0036772D01*
X0113985Y0036772D01*
X0111968Y0047674D02*
X0111234Y0048775D01*
X0110500Y0047674D01*
X0110500Y0048775D02*
X0112702Y0048775D01*
X0112702Y0049517D02*
X0112335Y0049517D01*
X0110867Y0050985D01*
X0110500Y0050985D01*
X0110500Y0051723D02*
X0110500Y0052090D01*
X0110867Y0052090D01*
X0110867Y0051723D01*
X0110500Y0051723D01*
X0110500Y0053199D02*
X0112702Y0053199D01*
X0111601Y0054300D01*
X0111601Y0052832D01*
X0112702Y0050985D02*
X0112702Y0049517D01*
X0097400Y0049611D02*
X0097400Y0049244D01*
X0097033Y0049244D01*
X0097033Y0049611D01*
X0097400Y0049611D01*
X0097400Y0050349D02*
X0097033Y0050349D01*
X0095565Y0051816D01*
X0095198Y0051816D01*
X0095198Y0050349D01*
X0096299Y0048502D02*
X0096299Y0047034D01*
X0095198Y0048135D01*
X0097400Y0048135D01*
X0097400Y0052558D02*
X0095198Y0052558D01*
X0095932Y0053659D02*
X0096666Y0052558D01*
X0097400Y0053659D01*
X0101200Y0066300D02*
X0102668Y0066300D01*
X0101934Y0066300D02*
X0101934Y0068502D01*
X0101200Y0067768D01*
X0103410Y0068135D02*
X0103410Y0066667D01*
X0104878Y0068135D01*
X0104878Y0066667D01*
X0104511Y0066300D01*
X0103777Y0066300D01*
X0103410Y0066667D01*
X0103410Y0068135D02*
X0103777Y0068502D01*
X0104511Y0068502D01*
X0104878Y0068135D01*
X0105620Y0068502D02*
X0105620Y0066300D01*
X0105620Y0067034D02*
X0106721Y0066300D01*
X0105620Y0067034D02*
X0106721Y0067768D01*
X0070961Y0045852D02*
X0070961Y0043650D01*
X0071328Y0044751D02*
X0069860Y0044751D01*
X0070961Y0045852D01*
X0069118Y0045852D02*
X0069118Y0044017D01*
X0068751Y0043650D01*
X0068017Y0043650D01*
X0067650Y0044017D01*
X0067650Y0045852D01*
X0066908Y0045485D02*
X0066541Y0045852D01*
X0065807Y0045852D01*
X0065440Y0045485D01*
X0064698Y0045485D02*
X0064698Y0045118D01*
X0064331Y0044751D01*
X0064698Y0044384D01*
X0064698Y0044017D01*
X0064331Y0043650D01*
X0063597Y0043650D01*
X0063230Y0044017D01*
X0063964Y0044751D02*
X0064331Y0044751D01*
X0064698Y0045485D02*
X0064331Y0045852D01*
X0063597Y0045852D01*
X0063230Y0045485D01*
X0065440Y0043650D02*
X0066908Y0045118D01*
X0066908Y0045485D01*
X0066908Y0043650D02*
X0065440Y0043650D01*
X0050131Y0053150D02*
X0049030Y0053884D01*
X0050131Y0054618D01*
X0049030Y0055352D02*
X0049030Y0053150D01*
X0048288Y0053517D02*
X0047921Y0053150D01*
X0047187Y0053150D01*
X0046820Y0053517D01*
X0048288Y0054985D01*
X0048288Y0053517D01*
X0048288Y0054985D02*
X0047921Y0055352D01*
X0047187Y0055352D01*
X0046820Y0054985D01*
X0046820Y0053517D01*
X0046078Y0053517D02*
X0045711Y0053150D01*
X0044977Y0053150D01*
X0044610Y0053517D01*
X0046078Y0054985D01*
X0046078Y0053517D01*
X0046078Y0054985D02*
X0045711Y0055352D01*
X0044977Y0055352D01*
X0044610Y0054985D01*
X0044610Y0053517D01*
X0043868Y0053150D02*
X0042400Y0053150D01*
X0043134Y0053150D02*
X0043134Y0055352D01*
X0042400Y0054618D01*
X0032502Y0057599D02*
X0032502Y0058333D01*
X0032135Y0058700D01*
X0032502Y0057599D02*
X0032135Y0057232D01*
X0031768Y0057232D01*
X0030300Y0058700D01*
X0030300Y0057232D01*
X0030300Y0059442D02*
X0030300Y0060910D01*
X0030300Y0060176D02*
X0032502Y0060176D01*
X0031768Y0060910D01*
X0017400Y0058750D02*
X0017033Y0058750D01*
X0015565Y0060218D01*
X0015198Y0060218D01*
X0015198Y0058750D01*
X0015565Y0058008D02*
X0015198Y0057641D01*
X0015198Y0056907D01*
X0015565Y0056540D01*
X0015565Y0058008D02*
X0015932Y0058008D01*
X0017400Y0056540D01*
X0017400Y0058008D01*
X0020987Y0030093D02*
X0022088Y0029359D01*
X0020987Y0028625D01*
X0022088Y0027891D02*
X0022088Y0030093D01*
X0022830Y0029726D02*
X0023197Y0030093D01*
X0023930Y0030093D01*
X0024297Y0029726D01*
X0022830Y0028258D01*
X0022830Y0029726D01*
X0024297Y0029726D02*
X0024297Y0028258D01*
X0023930Y0027891D01*
X0023197Y0027891D01*
X0022830Y0028258D01*
X0025039Y0028258D02*
X0025039Y0028625D01*
X0026507Y0030093D01*
X0025039Y0030093D01*
X0025039Y0028258D02*
X0025406Y0027891D01*
X0026140Y0027891D01*
X0026507Y0028258D01*
X0062522Y0018800D02*
X0063990Y0018800D01*
X0063990Y0018433D01*
X0062522Y0016965D01*
X0062522Y0016598D01*
X0063990Y0016598D01*
X0064732Y0016598D02*
X0064732Y0018800D01*
X0064732Y0017699D02*
X0066200Y0017699D01*
X0066200Y0018800D02*
X0066200Y0016598D01*
X0066942Y0016598D02*
X0067676Y0017332D01*
X0068410Y0016598D01*
X0068410Y0018800D01*
X0069152Y0018433D02*
X0069519Y0018800D01*
X0070253Y0018800D01*
X0070620Y0018433D01*
X0070620Y0018066D01*
X0070253Y0017699D01*
X0069519Y0017699D01*
X0069152Y0018066D01*
X0069152Y0018433D01*
X0069519Y0017699D02*
X0069152Y0017332D01*
X0069152Y0016965D01*
X0069519Y0016598D01*
X0070253Y0016598D01*
X0070620Y0016965D01*
X0070620Y0017332D01*
X0070253Y0017699D01*
X0066942Y0016598D02*
X0066942Y0018800D01*
X0083230Y0028600D02*
X0084698Y0028600D01*
X0083964Y0028600D02*
X0083964Y0030802D01*
X0083230Y0030068D01*
X0085440Y0030435D02*
X0085807Y0030802D01*
X0086541Y0030802D01*
X0086908Y0030435D01*
X0086908Y0030068D01*
X0085440Y0028600D01*
X0086908Y0028600D01*
X0043421Y0096750D02*
X0042320Y0097484D01*
X0043421Y0098218D01*
X0042320Y0098952D02*
X0042320Y0096750D01*
X0041578Y0097117D02*
X0041211Y0096750D01*
X0040477Y0096750D01*
X0040110Y0097117D01*
X0041578Y0098585D01*
X0041578Y0097117D01*
X0041578Y0098585D02*
X0041211Y0098952D01*
X0040477Y0098952D01*
X0040110Y0098585D01*
X0040110Y0097117D01*
X0039368Y0096750D02*
X0037900Y0096750D01*
X0039368Y0098218D01*
X0039368Y0098585D01*
X0039001Y0098952D01*
X0038267Y0098952D01*
X0037900Y0098585D01*
D14*
X0034876Y0092091D03*
X0031924Y0092091D03*
X0045624Y0091991D03*
X0048576Y0091991D03*
D15*
X0047100Y0091991D03*
X0033400Y0092091D03*
D16*
X0037885Y0065387D02*
X0042215Y0065387D01*
X0042215Y0057513D02*
X0037885Y0057513D01*
X0028850Y0046491D02*
X0028850Y0043109D01*
X0024907Y0047591D02*
X0022793Y0047591D01*
X0018850Y0046491D02*
X0018850Y0043109D01*
X0053770Y0037845D02*
X0053770Y0036270D01*
X0055345Y0036270D01*
X0079755Y0036270D02*
X0081330Y0036270D01*
X0081330Y0037845D01*
X0098635Y0035113D02*
X0102965Y0035113D01*
X0101359Y0032050D02*
X0104741Y0032050D01*
X0100259Y0028107D02*
X0100259Y0025993D01*
X0101359Y0022050D02*
X0104741Y0022050D01*
X0102965Y0042987D02*
X0098635Y0042987D01*
X0081330Y0062255D02*
X0081330Y0063830D01*
X0079755Y0063830D01*
X0055739Y0063830D02*
X0053770Y0061861D01*
D17*
X0017550Y0040800D03*
X0107050Y0020750D03*
D18*
X0076978Y0021213D02*
X0076980Y0021251D01*
X0076986Y0021288D01*
X0076996Y0021325D01*
X0077009Y0021361D01*
X0077027Y0021394D01*
X0077047Y0021426D01*
X0077071Y0021456D01*
X0077098Y0021483D01*
X0077128Y0021507D01*
X0077159Y0021527D01*
X0077193Y0021545D01*
X0077229Y0021558D01*
X0077266Y0021568D01*
X0077303Y0021574D01*
X0077341Y0021576D01*
X0077379Y0021574D01*
X0077416Y0021568D01*
X0077453Y0021558D01*
X0077489Y0021545D01*
X0077522Y0021527D01*
X0077554Y0021507D01*
X0077584Y0021483D01*
X0077611Y0021456D01*
X0077635Y0021426D01*
X0077655Y0021395D01*
X0077673Y0021361D01*
X0077686Y0021325D01*
X0077696Y0021288D01*
X0077702Y0021251D01*
X0077704Y0021213D01*
X0077702Y0021175D01*
X0077696Y0021138D01*
X0077686Y0021101D01*
X0077673Y0021065D01*
X0077655Y0021032D01*
X0077635Y0021000D01*
X0077611Y0020970D01*
X0077584Y0020943D01*
X0077554Y0020919D01*
X0077523Y0020899D01*
X0077489Y0020881D01*
X0077453Y0020868D01*
X0077416Y0020858D01*
X0077379Y0020852D01*
X0077341Y0020850D01*
X0077303Y0020852D01*
X0077266Y0020858D01*
X0077229Y0020868D01*
X0077193Y0020881D01*
X0077160Y0020899D01*
X0077128Y0020919D01*
X0077098Y0020943D01*
X0077071Y0020970D01*
X0077047Y0021000D01*
X0077027Y0021031D01*
X0077009Y0021065D01*
X0076996Y0021101D01*
X0076986Y0021138D01*
X0076980Y0021175D01*
X0076978Y0021213D01*
X0025896Y0016637D02*
X0025898Y0016675D01*
X0025904Y0016712D01*
X0025914Y0016749D01*
X0025927Y0016785D01*
X0025945Y0016818D01*
X0025965Y0016850D01*
X0025989Y0016880D01*
X0026016Y0016907D01*
X0026046Y0016931D01*
X0026077Y0016951D01*
X0026111Y0016969D01*
X0026147Y0016982D01*
X0026184Y0016992D01*
X0026221Y0016998D01*
X0026259Y0017000D01*
X0026297Y0016998D01*
X0026334Y0016992D01*
X0026371Y0016982D01*
X0026407Y0016969D01*
X0026440Y0016951D01*
X0026472Y0016931D01*
X0026502Y0016907D01*
X0026529Y0016880D01*
X0026553Y0016850D01*
X0026573Y0016819D01*
X0026591Y0016785D01*
X0026604Y0016749D01*
X0026614Y0016712D01*
X0026620Y0016675D01*
X0026622Y0016637D01*
X0026620Y0016599D01*
X0026614Y0016562D01*
X0026604Y0016525D01*
X0026591Y0016489D01*
X0026573Y0016456D01*
X0026553Y0016424D01*
X0026529Y0016394D01*
X0026502Y0016367D01*
X0026472Y0016343D01*
X0026441Y0016323D01*
X0026407Y0016305D01*
X0026371Y0016292D01*
X0026334Y0016282D01*
X0026297Y0016276D01*
X0026259Y0016274D01*
X0026221Y0016276D01*
X0026184Y0016282D01*
X0026147Y0016292D01*
X0026111Y0016305D01*
X0026078Y0016323D01*
X0026046Y0016343D01*
X0026016Y0016367D01*
X0025989Y0016394D01*
X0025965Y0016424D01*
X0025945Y0016455D01*
X0025927Y0016489D01*
X0025914Y0016525D01*
X0025904Y0016562D01*
X0025898Y0016599D01*
X0025896Y0016637D01*
D19*
X0023850Y0033200D03*
X0045800Y0050050D03*
X0085550Y0025400D03*
X0103600Y0048700D03*
X0103600Y0053600D03*
X0103600Y0063200D03*
D20*
X0072599Y0027959D02*
X0072599Y0022841D01*
X0060001Y0022841D01*
X0060001Y0027959D01*
X0072599Y0027959D01*
M02*
