G75*
%MOIN*%
%OFA0B0*%
%FSLAX25Y25*%
%IPPOS*%
%LPD*%
%AMOC8*
5,1,8,0,0,1.08239X$1,22.5*
%
%ADD10C,0.00000*%
%ADD11C,0.00500*%
D10*
X0004937Y0001500D02*
X0102063Y0001500D01*
X0102187Y0001502D01*
X0102310Y0001508D01*
X0102434Y0001517D01*
X0102556Y0001531D01*
X0102679Y0001548D01*
X0102801Y0001570D01*
X0102922Y0001595D01*
X0103042Y0001624D01*
X0103161Y0001656D01*
X0103280Y0001693D01*
X0103397Y0001733D01*
X0103512Y0001776D01*
X0103627Y0001824D01*
X0103739Y0001875D01*
X0103850Y0001929D01*
X0103960Y0001987D01*
X0104067Y0002048D01*
X0104173Y0002113D01*
X0104276Y0002181D01*
X0104377Y0002252D01*
X0104476Y0002326D01*
X0104573Y0002403D01*
X0104667Y0002484D01*
X0104758Y0002567D01*
X0104847Y0002653D01*
X0104933Y0002742D01*
X0105016Y0002833D01*
X0105097Y0002927D01*
X0105174Y0003024D01*
X0105248Y0003123D01*
X0105319Y0003224D01*
X0105387Y0003327D01*
X0105452Y0003433D01*
X0105513Y0003540D01*
X0105571Y0003650D01*
X0105625Y0003761D01*
X0105676Y0003873D01*
X0105724Y0003988D01*
X0105767Y0004103D01*
X0105807Y0004220D01*
X0105844Y0004339D01*
X0105876Y0004458D01*
X0105905Y0004578D01*
X0105930Y0004699D01*
X0105952Y0004821D01*
X0105969Y0004944D01*
X0105983Y0005066D01*
X0105992Y0005190D01*
X0105998Y0005313D01*
X0106000Y0005437D01*
X0106000Y0038063D01*
X0105998Y0038187D01*
X0105992Y0038310D01*
X0105983Y0038434D01*
X0105969Y0038556D01*
X0105952Y0038679D01*
X0105930Y0038801D01*
X0105905Y0038922D01*
X0105876Y0039042D01*
X0105844Y0039161D01*
X0105807Y0039280D01*
X0105767Y0039397D01*
X0105724Y0039512D01*
X0105676Y0039627D01*
X0105625Y0039739D01*
X0105571Y0039850D01*
X0105513Y0039960D01*
X0105452Y0040067D01*
X0105387Y0040173D01*
X0105319Y0040276D01*
X0105248Y0040377D01*
X0105174Y0040476D01*
X0105097Y0040573D01*
X0105016Y0040667D01*
X0104933Y0040758D01*
X0104847Y0040847D01*
X0104758Y0040933D01*
X0104667Y0041016D01*
X0104573Y0041097D01*
X0104476Y0041174D01*
X0104377Y0041248D01*
X0104276Y0041319D01*
X0104173Y0041387D01*
X0104067Y0041452D01*
X0103960Y0041513D01*
X0103850Y0041571D01*
X0103739Y0041625D01*
X0103627Y0041676D01*
X0103512Y0041724D01*
X0103397Y0041767D01*
X0103280Y0041807D01*
X0103161Y0041844D01*
X0103042Y0041876D01*
X0102922Y0041905D01*
X0102801Y0041930D01*
X0102679Y0041952D01*
X0102556Y0041969D01*
X0102434Y0041983D01*
X0102310Y0041992D01*
X0102187Y0041998D01*
X0102063Y0042000D01*
X0004937Y0042000D01*
X0004813Y0041998D01*
X0004690Y0041992D01*
X0004566Y0041983D01*
X0004444Y0041969D01*
X0004321Y0041952D01*
X0004199Y0041930D01*
X0004078Y0041905D01*
X0003958Y0041876D01*
X0003839Y0041844D01*
X0003720Y0041807D01*
X0003603Y0041767D01*
X0003488Y0041724D01*
X0003373Y0041676D01*
X0003261Y0041625D01*
X0003150Y0041571D01*
X0003040Y0041513D01*
X0002933Y0041452D01*
X0002827Y0041387D01*
X0002724Y0041319D01*
X0002623Y0041248D01*
X0002524Y0041174D01*
X0002427Y0041097D01*
X0002333Y0041016D01*
X0002242Y0040933D01*
X0002153Y0040847D01*
X0002067Y0040758D01*
X0001984Y0040667D01*
X0001903Y0040573D01*
X0001826Y0040476D01*
X0001752Y0040377D01*
X0001681Y0040276D01*
X0001613Y0040173D01*
X0001548Y0040067D01*
X0001487Y0039960D01*
X0001429Y0039850D01*
X0001375Y0039739D01*
X0001324Y0039627D01*
X0001276Y0039512D01*
X0001233Y0039397D01*
X0001193Y0039280D01*
X0001156Y0039161D01*
X0001124Y0039042D01*
X0001095Y0038922D01*
X0001070Y0038801D01*
X0001048Y0038679D01*
X0001031Y0038556D01*
X0001017Y0038434D01*
X0001008Y0038310D01*
X0001002Y0038187D01*
X0001000Y0038063D01*
X0001000Y0005437D01*
X0001002Y0005313D01*
X0001008Y0005190D01*
X0001017Y0005066D01*
X0001031Y0004944D01*
X0001048Y0004821D01*
X0001070Y0004699D01*
X0001095Y0004578D01*
X0001124Y0004458D01*
X0001156Y0004339D01*
X0001193Y0004220D01*
X0001233Y0004103D01*
X0001276Y0003988D01*
X0001324Y0003873D01*
X0001375Y0003761D01*
X0001429Y0003650D01*
X0001487Y0003540D01*
X0001548Y0003433D01*
X0001613Y0003327D01*
X0001681Y0003224D01*
X0001752Y0003123D01*
X0001826Y0003024D01*
X0001903Y0002927D01*
X0001984Y0002833D01*
X0002067Y0002742D01*
X0002153Y0002653D01*
X0002242Y0002567D01*
X0002333Y0002484D01*
X0002427Y0002403D01*
X0002524Y0002326D01*
X0002623Y0002252D01*
X0002724Y0002181D01*
X0002827Y0002113D01*
X0002933Y0002048D01*
X0003040Y0001987D01*
X0003150Y0001929D01*
X0003261Y0001875D01*
X0003373Y0001824D01*
X0003488Y0001776D01*
X0003603Y0001733D01*
X0003720Y0001693D01*
X0003839Y0001656D01*
X0003958Y0001624D01*
X0004078Y0001595D01*
X0004199Y0001570D01*
X0004321Y0001548D01*
X0004444Y0001531D01*
X0004566Y0001517D01*
X0004690Y0001508D01*
X0004813Y0001502D01*
X0004937Y0001500D01*
D11*
X0030476Y0013500D02*
X0030479Y0013771D01*
X0030489Y0014041D01*
X0030506Y0014311D01*
X0030529Y0014581D01*
X0030559Y0014849D01*
X0030595Y0015118D01*
X0030638Y0015385D01*
X0030688Y0015651D01*
X0030744Y0015915D01*
X0030806Y0016179D01*
X0030875Y0016440D01*
X0030951Y0016700D01*
X0031032Y0016958D01*
X0031120Y0017214D01*
X0031215Y0017467D01*
X0031315Y0017719D01*
X0031422Y0017967D01*
X0031534Y0018213D01*
X0031653Y0018457D01*
X0031778Y0018697D01*
X0031908Y0018934D01*
X0032044Y0019167D01*
X0032186Y0019398D01*
X0032334Y0019625D01*
X0032487Y0019848D01*
X0032645Y0020067D01*
X0032809Y0020282D01*
X0032978Y0020494D01*
X0033153Y0020701D01*
X0033332Y0020903D01*
X0033516Y0021101D01*
X0033705Y0021295D01*
X0033899Y0021484D01*
X0034097Y0021668D01*
X0034299Y0021847D01*
X0034506Y0022022D01*
X0034718Y0022191D01*
X0034933Y0022355D01*
X0035152Y0022513D01*
X0035375Y0022666D01*
X0035602Y0022814D01*
X0035833Y0022956D01*
X0036066Y0023092D01*
X0036303Y0023222D01*
X0036543Y0023347D01*
X0036787Y0023466D01*
X0037033Y0023578D01*
X0037281Y0023685D01*
X0037533Y0023785D01*
X0037786Y0023880D01*
X0038042Y0023968D01*
X0038300Y0024049D01*
X0038560Y0024125D01*
X0038821Y0024194D01*
X0039085Y0024256D01*
X0039349Y0024312D01*
X0039615Y0024362D01*
X0039882Y0024405D01*
X0040151Y0024441D01*
X0040419Y0024471D01*
X0040689Y0024494D01*
X0040959Y0024511D01*
X0041229Y0024521D01*
X0041500Y0024524D01*
X0041771Y0024521D01*
X0042041Y0024511D01*
X0042311Y0024494D01*
X0042581Y0024471D01*
X0042849Y0024441D01*
X0043118Y0024405D01*
X0043385Y0024362D01*
X0043651Y0024312D01*
X0043915Y0024256D01*
X0044179Y0024194D01*
X0044440Y0024125D01*
X0044700Y0024049D01*
X0044958Y0023968D01*
X0045214Y0023880D01*
X0045467Y0023785D01*
X0045719Y0023685D01*
X0045967Y0023578D01*
X0046213Y0023466D01*
X0046457Y0023347D01*
X0046697Y0023222D01*
X0046934Y0023092D01*
X0047167Y0022956D01*
X0047398Y0022814D01*
X0047625Y0022666D01*
X0047848Y0022513D01*
X0048067Y0022355D01*
X0048282Y0022191D01*
X0048494Y0022022D01*
X0048701Y0021847D01*
X0048903Y0021668D01*
X0049101Y0021484D01*
X0049295Y0021295D01*
X0049484Y0021101D01*
X0049668Y0020903D01*
X0049847Y0020701D01*
X0050022Y0020494D01*
X0050191Y0020282D01*
X0050355Y0020067D01*
X0050513Y0019848D01*
X0050666Y0019625D01*
X0050814Y0019398D01*
X0050956Y0019167D01*
X0051092Y0018934D01*
X0051222Y0018697D01*
X0051347Y0018457D01*
X0051466Y0018213D01*
X0051578Y0017967D01*
X0051685Y0017719D01*
X0051785Y0017467D01*
X0051880Y0017214D01*
X0051968Y0016958D01*
X0052049Y0016700D01*
X0052125Y0016440D01*
X0052194Y0016179D01*
X0052256Y0015915D01*
X0052312Y0015651D01*
X0052362Y0015385D01*
X0052405Y0015118D01*
X0052441Y0014849D01*
X0052471Y0014581D01*
X0052494Y0014311D01*
X0052511Y0014041D01*
X0052521Y0013771D01*
X0052524Y0013500D01*
X0052521Y0013229D01*
X0052511Y0012959D01*
X0052494Y0012689D01*
X0052471Y0012419D01*
X0052441Y0012151D01*
X0052405Y0011882D01*
X0052362Y0011615D01*
X0052312Y0011349D01*
X0052256Y0011085D01*
X0052194Y0010821D01*
X0052125Y0010560D01*
X0052049Y0010300D01*
X0051968Y0010042D01*
X0051880Y0009786D01*
X0051785Y0009533D01*
X0051685Y0009281D01*
X0051578Y0009033D01*
X0051466Y0008787D01*
X0051347Y0008543D01*
X0051222Y0008303D01*
X0051092Y0008066D01*
X0050956Y0007833D01*
X0050814Y0007602D01*
X0050666Y0007375D01*
X0050513Y0007152D01*
X0050355Y0006933D01*
X0050191Y0006718D01*
X0050022Y0006506D01*
X0049847Y0006299D01*
X0049668Y0006097D01*
X0049484Y0005899D01*
X0049295Y0005705D01*
X0049101Y0005516D01*
X0048903Y0005332D01*
X0048701Y0005153D01*
X0048494Y0004978D01*
X0048282Y0004809D01*
X0048067Y0004645D01*
X0047848Y0004487D01*
X0047625Y0004334D01*
X0047398Y0004186D01*
X0047167Y0004044D01*
X0046934Y0003908D01*
X0046697Y0003778D01*
X0046457Y0003653D01*
X0046213Y0003534D01*
X0045967Y0003422D01*
X0045719Y0003315D01*
X0045467Y0003215D01*
X0045214Y0003120D01*
X0044958Y0003032D01*
X0044700Y0002951D01*
X0044440Y0002875D01*
X0044179Y0002806D01*
X0043915Y0002744D01*
X0043651Y0002688D01*
X0043385Y0002638D01*
X0043118Y0002595D01*
X0042849Y0002559D01*
X0042581Y0002529D01*
X0042311Y0002506D01*
X0042041Y0002489D01*
X0041771Y0002479D01*
X0041500Y0002476D01*
X0041229Y0002479D01*
X0040959Y0002489D01*
X0040689Y0002506D01*
X0040419Y0002529D01*
X0040151Y0002559D01*
X0039882Y0002595D01*
X0039615Y0002638D01*
X0039349Y0002688D01*
X0039085Y0002744D01*
X0038821Y0002806D01*
X0038560Y0002875D01*
X0038300Y0002951D01*
X0038042Y0003032D01*
X0037786Y0003120D01*
X0037533Y0003215D01*
X0037281Y0003315D01*
X0037033Y0003422D01*
X0036787Y0003534D01*
X0036543Y0003653D01*
X0036303Y0003778D01*
X0036066Y0003908D01*
X0035833Y0004044D01*
X0035602Y0004186D01*
X0035375Y0004334D01*
X0035152Y0004487D01*
X0034933Y0004645D01*
X0034718Y0004809D01*
X0034506Y0004978D01*
X0034299Y0005153D01*
X0034097Y0005332D01*
X0033899Y0005516D01*
X0033705Y0005705D01*
X0033516Y0005899D01*
X0033332Y0006097D01*
X0033153Y0006299D01*
X0032978Y0006506D01*
X0032809Y0006718D01*
X0032645Y0006933D01*
X0032487Y0007152D01*
X0032334Y0007375D01*
X0032186Y0007602D01*
X0032044Y0007833D01*
X0031908Y0008066D01*
X0031778Y0008303D01*
X0031653Y0008543D01*
X0031534Y0008787D01*
X0031422Y0009033D01*
X0031315Y0009281D01*
X0031215Y0009533D01*
X0031120Y0009786D01*
X0031032Y0010042D01*
X0030951Y0010300D01*
X0030875Y0010560D01*
X0030806Y0010821D01*
X0030744Y0011085D01*
X0030688Y0011349D01*
X0030638Y0011615D01*
X0030595Y0011882D01*
X0030559Y0012151D01*
X0030529Y0012419D01*
X0030506Y0012689D01*
X0030489Y0012959D01*
X0030479Y0013229D01*
X0030476Y0013500D01*
X0054476Y0013500D02*
X0054479Y0013771D01*
X0054489Y0014041D01*
X0054506Y0014311D01*
X0054529Y0014581D01*
X0054559Y0014849D01*
X0054595Y0015118D01*
X0054638Y0015385D01*
X0054688Y0015651D01*
X0054744Y0015915D01*
X0054806Y0016179D01*
X0054875Y0016440D01*
X0054951Y0016700D01*
X0055032Y0016958D01*
X0055120Y0017214D01*
X0055215Y0017467D01*
X0055315Y0017719D01*
X0055422Y0017967D01*
X0055534Y0018213D01*
X0055653Y0018457D01*
X0055778Y0018697D01*
X0055908Y0018934D01*
X0056044Y0019167D01*
X0056186Y0019398D01*
X0056334Y0019625D01*
X0056487Y0019848D01*
X0056645Y0020067D01*
X0056809Y0020282D01*
X0056978Y0020494D01*
X0057153Y0020701D01*
X0057332Y0020903D01*
X0057516Y0021101D01*
X0057705Y0021295D01*
X0057899Y0021484D01*
X0058097Y0021668D01*
X0058299Y0021847D01*
X0058506Y0022022D01*
X0058718Y0022191D01*
X0058933Y0022355D01*
X0059152Y0022513D01*
X0059375Y0022666D01*
X0059602Y0022814D01*
X0059833Y0022956D01*
X0060066Y0023092D01*
X0060303Y0023222D01*
X0060543Y0023347D01*
X0060787Y0023466D01*
X0061033Y0023578D01*
X0061281Y0023685D01*
X0061533Y0023785D01*
X0061786Y0023880D01*
X0062042Y0023968D01*
X0062300Y0024049D01*
X0062560Y0024125D01*
X0062821Y0024194D01*
X0063085Y0024256D01*
X0063349Y0024312D01*
X0063615Y0024362D01*
X0063882Y0024405D01*
X0064151Y0024441D01*
X0064419Y0024471D01*
X0064689Y0024494D01*
X0064959Y0024511D01*
X0065229Y0024521D01*
X0065500Y0024524D01*
X0065771Y0024521D01*
X0066041Y0024511D01*
X0066311Y0024494D01*
X0066581Y0024471D01*
X0066849Y0024441D01*
X0067118Y0024405D01*
X0067385Y0024362D01*
X0067651Y0024312D01*
X0067915Y0024256D01*
X0068179Y0024194D01*
X0068440Y0024125D01*
X0068700Y0024049D01*
X0068958Y0023968D01*
X0069214Y0023880D01*
X0069467Y0023785D01*
X0069719Y0023685D01*
X0069967Y0023578D01*
X0070213Y0023466D01*
X0070457Y0023347D01*
X0070697Y0023222D01*
X0070934Y0023092D01*
X0071167Y0022956D01*
X0071398Y0022814D01*
X0071625Y0022666D01*
X0071848Y0022513D01*
X0072067Y0022355D01*
X0072282Y0022191D01*
X0072494Y0022022D01*
X0072701Y0021847D01*
X0072903Y0021668D01*
X0073101Y0021484D01*
X0073295Y0021295D01*
X0073484Y0021101D01*
X0073668Y0020903D01*
X0073847Y0020701D01*
X0074022Y0020494D01*
X0074191Y0020282D01*
X0074355Y0020067D01*
X0074513Y0019848D01*
X0074666Y0019625D01*
X0074814Y0019398D01*
X0074956Y0019167D01*
X0075092Y0018934D01*
X0075222Y0018697D01*
X0075347Y0018457D01*
X0075466Y0018213D01*
X0075578Y0017967D01*
X0075685Y0017719D01*
X0075785Y0017467D01*
X0075880Y0017214D01*
X0075968Y0016958D01*
X0076049Y0016700D01*
X0076125Y0016440D01*
X0076194Y0016179D01*
X0076256Y0015915D01*
X0076312Y0015651D01*
X0076362Y0015385D01*
X0076405Y0015118D01*
X0076441Y0014849D01*
X0076471Y0014581D01*
X0076494Y0014311D01*
X0076511Y0014041D01*
X0076521Y0013771D01*
X0076524Y0013500D01*
X0076521Y0013229D01*
X0076511Y0012959D01*
X0076494Y0012689D01*
X0076471Y0012419D01*
X0076441Y0012151D01*
X0076405Y0011882D01*
X0076362Y0011615D01*
X0076312Y0011349D01*
X0076256Y0011085D01*
X0076194Y0010821D01*
X0076125Y0010560D01*
X0076049Y0010300D01*
X0075968Y0010042D01*
X0075880Y0009786D01*
X0075785Y0009533D01*
X0075685Y0009281D01*
X0075578Y0009033D01*
X0075466Y0008787D01*
X0075347Y0008543D01*
X0075222Y0008303D01*
X0075092Y0008066D01*
X0074956Y0007833D01*
X0074814Y0007602D01*
X0074666Y0007375D01*
X0074513Y0007152D01*
X0074355Y0006933D01*
X0074191Y0006718D01*
X0074022Y0006506D01*
X0073847Y0006299D01*
X0073668Y0006097D01*
X0073484Y0005899D01*
X0073295Y0005705D01*
X0073101Y0005516D01*
X0072903Y0005332D01*
X0072701Y0005153D01*
X0072494Y0004978D01*
X0072282Y0004809D01*
X0072067Y0004645D01*
X0071848Y0004487D01*
X0071625Y0004334D01*
X0071398Y0004186D01*
X0071167Y0004044D01*
X0070934Y0003908D01*
X0070697Y0003778D01*
X0070457Y0003653D01*
X0070213Y0003534D01*
X0069967Y0003422D01*
X0069719Y0003315D01*
X0069467Y0003215D01*
X0069214Y0003120D01*
X0068958Y0003032D01*
X0068700Y0002951D01*
X0068440Y0002875D01*
X0068179Y0002806D01*
X0067915Y0002744D01*
X0067651Y0002688D01*
X0067385Y0002638D01*
X0067118Y0002595D01*
X0066849Y0002559D01*
X0066581Y0002529D01*
X0066311Y0002506D01*
X0066041Y0002489D01*
X0065771Y0002479D01*
X0065500Y0002476D01*
X0065229Y0002479D01*
X0064959Y0002489D01*
X0064689Y0002506D01*
X0064419Y0002529D01*
X0064151Y0002559D01*
X0063882Y0002595D01*
X0063615Y0002638D01*
X0063349Y0002688D01*
X0063085Y0002744D01*
X0062821Y0002806D01*
X0062560Y0002875D01*
X0062300Y0002951D01*
X0062042Y0003032D01*
X0061786Y0003120D01*
X0061533Y0003215D01*
X0061281Y0003315D01*
X0061033Y0003422D01*
X0060787Y0003534D01*
X0060543Y0003653D01*
X0060303Y0003778D01*
X0060066Y0003908D01*
X0059833Y0004044D01*
X0059602Y0004186D01*
X0059375Y0004334D01*
X0059152Y0004487D01*
X0058933Y0004645D01*
X0058718Y0004809D01*
X0058506Y0004978D01*
X0058299Y0005153D01*
X0058097Y0005332D01*
X0057899Y0005516D01*
X0057705Y0005705D01*
X0057516Y0005899D01*
X0057332Y0006097D01*
X0057153Y0006299D01*
X0056978Y0006506D01*
X0056809Y0006718D01*
X0056645Y0006933D01*
X0056487Y0007152D01*
X0056334Y0007375D01*
X0056186Y0007602D01*
X0056044Y0007833D01*
X0055908Y0008066D01*
X0055778Y0008303D01*
X0055653Y0008543D01*
X0055534Y0008787D01*
X0055422Y0009033D01*
X0055315Y0009281D01*
X0055215Y0009533D01*
X0055120Y0009786D01*
X0055032Y0010042D01*
X0054951Y0010300D01*
X0054875Y0010560D01*
X0054806Y0010821D01*
X0054744Y0011085D01*
X0054688Y0011349D01*
X0054638Y0011615D01*
X0054595Y0011882D01*
X0054559Y0012151D01*
X0054529Y0012419D01*
X0054506Y0012689D01*
X0054489Y0012959D01*
X0054479Y0013229D01*
X0054476Y0013500D01*
M02*
