G75*
%MOIN*%
%OFA0B0*%
%FSLAX25Y25*%
%IPPOS*%
%LPD*%
%AMOC8*
5,1,8,0,0,1.08239X$1,22.5*
%
%ADD10R,0.04724X0.03150*%
%ADD11R,0.01772X0.05512*%
%ADD12C,0.06496*%
%ADD13C,0.07677*%
%ADD14C,0.03600*%
%ADD15C,0.01600*%
%ADD16C,0.02378*%
D10*
X0027500Y0009957D03*
X0027500Y0017043D03*
X0027500Y0028457D03*
X0027500Y0035543D03*
X0079500Y0035543D03*
X0079500Y0028457D03*
X0079500Y0017043D03*
X0079500Y0009957D03*
D11*
X0058736Y0029287D03*
X0056059Y0029287D03*
X0053500Y0029287D03*
X0050941Y0029287D03*
X0048382Y0029287D03*
D12*
X0042476Y0028500D03*
X0064524Y0028500D03*
D13*
X0053500Y0036965D03*
D14*
X0041500Y0017437D03*
X0045437Y0013500D03*
X0041500Y0009563D03*
X0061563Y0013500D03*
X0069437Y0013500D03*
X0065500Y0009563D03*
D15*
X0079106Y0009563D01*
X0079500Y0009957D01*
X0075957Y0013500D02*
X0079500Y0017043D01*
X0075957Y0013500D02*
X0069437Y0013500D01*
X0058736Y0024201D01*
X0058736Y0029287D01*
X0056059Y0029287D02*
X0056059Y0019004D01*
X0061563Y0013500D01*
X0060500Y0009500D02*
X0053500Y0016500D01*
X0050500Y0013500D01*
X0045437Y0013500D01*
X0031043Y0013500D01*
X0027500Y0009957D01*
X0027500Y0017043D02*
X0027894Y0017437D01*
X0041500Y0017437D01*
X0041500Y0019500D01*
X0048500Y0026500D01*
X0048382Y0026500D01*
X0048382Y0029287D01*
X0050941Y0029287D02*
X0050941Y0024441D01*
X0050500Y0024000D01*
X0042476Y0028500D02*
X0042476Y0032976D01*
X0046465Y0036965D01*
X0053500Y0036965D01*
X0060535Y0036965D01*
X0064500Y0033000D01*
X0064500Y0028524D01*
X0064524Y0028500D01*
X0079457Y0028500D01*
X0079500Y0028457D01*
X0079500Y0035543D02*
X0073043Y0035543D01*
X0073000Y0035500D01*
X0053500Y0029287D02*
X0053500Y0016500D01*
X0060500Y0009500D02*
X0065437Y0009500D01*
X0065500Y0009563D01*
X0042476Y0028500D02*
X0042433Y0028457D01*
X0027500Y0028457D01*
X0027500Y0035543D02*
X0035957Y0035543D01*
X0036000Y0035500D01*
D16*
X0036000Y0035500D03*
X0050500Y0024000D03*
X0073000Y0035500D03*
M02*
